<svg id="Layer_1" data-name="Layer 1" xmlns="http://www.w3.org/2000/svg" viewBox="0 0 296.81 316.17"><path d="M288.2,306.19v33.13c0,4.42-1,8.5-4.2,11.82a14.41,14.41,0,0,1-10.69,4.54c-9.73.07-19.46.06-29.19.07l-191,.21a22.43,22.43,0,0,1-6.26-.77A14.12,14.12,0,0,1,36.76,342c-.13-4.05-.1-8.11-.1-12.16q-.19-136.12-.35-272.26A25.71,25.71,0,0,1,37,50.92,14.61,14.61,0,0,1,51.23,40.11c11.29-.07,22.58,0,33.87-.07q57.72,0,115.45-.24a13.27,13.27,0,0,1,10.23,4.3Q245.78,79.59,281,115c1.58,1.59,3.16,3.19,4.71,4.81a7.31,7.31,0,0,1,2.34,6.59,9.74,9.74,0,0,0,0,1.87q0,27.79.07,55.57v2.3H313.2c9.32.09,16.87,5.86,19.17,14.62a18.34,18.34,0,0,1,.62,4.6q.12,40.69.12,81.4a19,19,0,0,1-17.5,19c-8.06.62-16.19.32-24.3.43ZM268.28,186.27c.05-.71.09-1.08.09-1.46,0-15.78-.06-31.56,0-47.34,0-1.58-.6-1.82-2-1.82-16.47.06-32.93,0-49.4.1a30.37,30.37,0,0,1-11-1.9c-6.23-2.33-10.7-6.41-12.29-13a40.56,40.56,0,0,1-1.14-9c-.07-16.28-.07-32.53-.07-48.84,0-3.12-.38-3.49-3.55-3.51h-.56l-122,.2c-2.72,0-5.44,0-8.16.05-1.52,0-2.53.54-2.45,2.29V64.8q.18,133.13.35,266.26v2.06c.15,3.2.23,3.3,3.47,3.3l205.64-.26c3.08,0,3.54-.49,3.54-3.63V307.84a14.66,14.66,0,0,0-.09-1.93h-2.57l-161.3.21h-1.68c-12.12,0-20.34-8.1-20.44-20.24-.2-10.61-.2-21.21-.2-31.81,0-16.4-.09-32.81.14-49.21a17.6,17.6,0,0,1,8.74-15.23c3.94-2.48,8.33-3.13,12.89-3.14l161.33-.22Zm-64.53,23.67c1.47,4.38,2.85,8.42,4.21,12.47q10.38,31,20.73,62a2.16,2.16,0,0,0,2.46,1.8c6.79-.1,13.59-.07,20.39,0a1.74,1.74,0,0,0,2-1.36q12.45-36.77,25-73.51a9.35,9.35,0,0,0,.22-1.39c-6.64,0-13.11,0-19.58.08-.43,0-1.09.75-1.24,1.27q-6.65,22.47-13.17,45c-1.2,4.17-2.1,8.42-3.07,12.38-2.36-8.83-4.67-17.86-7.17-26.84-2.83-10.12-5.81-20.21-8.79-30.29-.18-.59-1-1.43-1.48-1.44-6.73-.21-13.46-.16-20.51-.16Zm-4.28,24.55c-1.18-8.14-4.61-14.84-11.23-19.64-7.11-5.16-15.26-6.42-23.79-6.07-14.6.6-26,8.85-30.86,22.58a51.07,51.07,0,0,0-.52,33.23c3.41,10.81,10.47,18.25,21.54,21.46a42.92,42.92,0,0,0,19.45.85c11.74-2,20.09-8.31,24.14-19.75.63-1.78,1-3.66,1.54-5.65-.88,0-1.43-.09-2-.09-5.49,0-11,.07-16.46,0a2.07,2.07,0,0,0-2.4,1.66c0,.05,0,.11,0,.16-1.11,4-3.43,7-7.53,8.37-7.51,2.47-14.56-1.07-17.51-8.87-2.41-6.38-2.56-13-2.1-19.72a29.12,29.12,0,0,1,3.06-11.86c2.85-5.33,7.52-7.7,13.85-7,5.31.55,8.65,3.55,10.4,9.31l.35,1.11ZM210.1,63c-.06,1.31-.13,2-.13,2.75q0,22.62.09,45.24c0,5.23,2.41,7.63,7.69,7.63q22.16,0,44.31-.07c.83,0,1.66-.12,2.84-.22Z" transform="translate(-36.3 -39.79)"/></svg>