<svg width="128" height="128" viewBox="0 0 128 128" fill="none" xmlns="http://www.w3.org/2000/svg">
<rect width="128" height="128" fill="#262626"/>
<path d="M8.972 102.216C10.844 92.28 12.68 82.524 14.48 72.948C15.128 68.916 15.848 64.74 16.64 60.42C17.432 56.028 18.188 51.708 18.908 47.46C19.628 43.212 20.312 39.108 20.96 35.148C21.608 31.116 22.184 27.444 22.688 24.132L40.184 22.944C38.96 27.984 37.736 33.24 36.512 38.712C35.36 44.184 34.28 49.512 33.272 54.696L43.964 53.508C44.972 48.396 45.872 43.464 46.664 38.712C47.456 33.888 48.5 28.92 49.796 23.808C51.452 23.52 53.288 23.304 55.304 23.16C57.32 22.944 59.192 22.764 60.92 22.62C62.648 22.476 64.088 22.368 65.24 22.296C66.464 22.152 67.076 22.08 67.076 22.08C66.068 25.32 65.096 28.884 64.16 32.772C63.296 36.588 62.432 40.584 61.568 44.76C60.704 48.864 59.876 53.04 59.084 57.288C58.292 61.536 57.572 65.568 56.924 69.384C55.34 78.528 53.864 87.888 52.496 97.464L35.648 99.408C36.584 95.088 37.412 90.876 38.132 86.772C38.852 83.316 39.572 79.716 40.292 75.972C41.084 72.228 41.696 69.024 42.128 66.36L31.652 67.332C31.148 70.068 30.536 73.236 29.816 76.836C29.168 80.436 28.556 83.856 27.98 87.096C27.188 90.984 26.396 94.872 25.604 98.76L8.972 102.216ZM61.0693 102.216C62.9413 92.28 64.7773 82.524 66.5773 72.948C67.2253 68.916 67.9453 64.74 68.7373 60.42C69.5293 56.028 70.2853 51.708 71.0053 47.46C71.7253 43.212 72.4093 39.108 73.0573 35.148C73.7053 31.116 74.2813 27.444 74.7853 24.132L92.2813 22.944C91.0573 27.984 89.8333 33.24 88.6093 38.712C87.4573 44.184 86.3773 49.512 85.3693 54.696L96.0613 53.508C97.0693 48.396 97.9693 43.464 98.7613 38.712C99.5533 33.888 100.597 28.92 101.893 23.808C103.549 23.52 105.385 23.304 107.401 23.16C109.417 22.944 111.289 22.764 113.017 22.62C114.745 22.476 116.185 22.368 117.337 22.296C118.561 22.152 119.173 22.08 119.173 22.08C118.165 25.32 117.193 28.884 116.257 32.772C115.393 36.588 114.529 40.584 113.665 44.76C112.801 48.864 111.973 53.04 111.181 57.288C110.389 61.536 109.669 65.568 109.021 69.384C107.437 78.528 105.961 87.888 104.593 97.464L87.7453 99.408C88.6813 95.088 89.5093 90.876 90.2293 86.772C90.9493 83.316 91.6693 79.716 92.3893 75.972C93.1813 72.228 93.7933 69.024 94.2253 66.36L83.7493 67.332C83.2453 70.068 82.6333 73.236 81.9133 76.836C81.2653 80.436 80.6533 83.856 80.0773 87.096C79.2853 90.984 78.4933 94.872 77.7013 98.76L61.0693 102.216Z" fill="#FFCD00"/>
</svg>
