<svg id="Layer_1" data-name="Layer 1" xmlns="http://www.w3.org/2000/svg" viewBox="0 0 125.8 107"><path d="M54.15,116.35c-15,0-30,0-45.06,0a7.63,7.63,0,0,1-8-7.7V17.87a7.53,7.53,0,0,1,7.64-7.71c4.81,0,9.62,0,14.43,0q38.14,0,76.3,0a7.74,7.74,0,0,1,7.59,5.41,9.06,9.06,0,0,1,.33,2.24q0,45.47,0,90.91a7.52,7.52,0,0,1-7.59,7.66c-5.67,0-11.34,0-17,0Zm3.64-59.89c0-1.85,0-3.71,0-5.56,0-.84-.3-1.07-1.1-1.06-4.35,0-8.69,0-13,0-1.31,0-1.32,0-1.32,1.31q0,24.21,0,48.43c0,1,.33,1.3,1.31,1.29,4.48,0,9,0,13.43,0,1.32,0,1.32,0,1.32-1.32,0-8.12,0-16.24,0-24.36a29.19,29.19,0,0,1,.42-5c.61-3.39,2.14-6.17,5.79-7.08a13.88,13.88,0,0,1,3.53-.35c3.78,0,6.15,1.83,7,5.51a29.18,29.18,0,0,1,.66,6.19c.07,8.35,0,16.7,0,25.06,0,1.36,0,1.38,1.4,1.38,4.44,0,8.88,0,13.33,0,1,0,1.3-.26,1.3-1.29,0-9.68.07-19.36-.08-29A46.39,46.39,0,0,0,90.57,61c-1.3-5.64-4.58-9.76-10.35-11.37a38.19,38.19,0,0,0-6.15-.93,16.34,16.34,0,0,0-10.29,2.2A19,19,0,0,0,57.79,56.46ZM16.68,75.38c0,8.09,0,16.18,0,24.26,0,1,.3,1.24,1.24,1.24q6.81-.06,13.62,0c.87,0,1.22-.22,1.22-1.17q0-24.36,0-48.71c0-1-.34-1.16-1.21-1.16-4.51,0-9,0-13.53,0-1.32,0-1.32,0-1.32,1.38Zm8-32.34a9.23,9.23,0,1,0-9.24-9.15A9.17,9.17,0,0,0,24.71,43Z" transform="translate(-1.1 -10.12)"/><path d="M119.7,102.85a7,7,0,0,1,7.2,7.13,7.19,7.19,0,0,1-14.38,0A7.05,7.05,0,0,1,119.7,102.85ZM113.18,110a6.54,6.54,0,1,0,13.07,0,6.54,6.54,0,1,0-13.07,0Z" transform="translate(-1.1 -10.12)"/><path d="M120.6,110.45l2,3.08-.18.26a3.12,3.12,0,0,1-1-.59,17,17,0,0,1-1.39-2.17,1.11,1.11,0,0,0-1.48-.62c-.26.11-.38.71-.43,1.11-.07.55,0,1.13,0,1.69,0,.17-.23.32-.35.48-.17-.15-.49-.3-.49-.45,0-2.15,0-4.31,0-6.46,0-.18.41-.51.64-.52a25.16,25.16,0,0,1,2.88,0,1.85,1.85,0,0,1,1.9,1.79,2,2,0,0,1-1.42,2.11Zm-2.45-3.51c0,.83,0,1.49,0,2.14a.79.79,0,0,0,.48.55,7.79,7.79,0,0,0,1.87,0,1.26,1.26,0,0,0,1.17-1.54c-.09-.83-.62-1.11-1.35-1.13S119,106.94,118.15,106.94Z" transform="translate(-1.1 -10.12)"/></svg>