<svg id="Layer_2" data-name="Layer 2" xmlns="http://www.w3.org/2000/svg" viewBox="0 0 140.45 136.98"><defs><style>.cls-1{fill:#191717;fill-rule:evenodd;}</style></defs><path class="cls-1" d="M256.3,231.92a70.23,70.23,0,0,0-22.2,136.86c3.51.64,4.8-1.53,4.8-3.39,0-1.67-.07-6.08-.1-11.94-19.53,4.24-23.66-9.42-23.66-9.42-3.19-8.11-7.79-10.27-7.79-10.27-6.38-4.36.48-4.27.48-4.27,7,.5,10.76,7.24,10.76,7.24,6.26,10.73,16.43,7.63,20.43,5.84.64-4.54,2.46-7.64,4.46-9.39-15.59-1.78-32-7.8-32-34.71a27.12,27.12,0,0,1,7.23-18.84c-.72-1.78-3.13-8.92.69-18.59,0,0,5.9-1.89,19.31,7.2a66.7,66.7,0,0,1,35.17,0c13.4-9.09,19.29-7.2,19.29-7.2,3.83,9.67,1.42,16.81.7,18.59a27.06,27.06,0,0,1,7.21,18.84c0,27-16.41,32.91-32.06,34.65,2.52,2.17,4.77,6.46,4.77,13,0,9.39-.09,17-.09,19.26,0,1.88,1.27,4.06,4.83,3.38A70.23,70.23,0,0,0,256.3,231.92Z" transform="translate(-186.07 -231.92)"/></svg>