<svg id="Face-Black" xmlns="http://www.w3.org/2000/svg" viewBox="0 0 492.7 859.92"><defs><style>.cls-1{stroke:#fefefe;}.cls-1,.cls-2,.cls-4{stroke-miterlimit:10;}.cls-2{fill:#fff;stroke:#fff;}.cls-3{fill:#fefefe;}.cls-4,.cls-5{stroke:#000;}.cls-5{stroke-linecap:round;stroke-linejoin:round;}</style></defs><path class="cls-1" d="M494.7,941c-.09-21.46-6.1-38.47-28.7-47.18-7.07-2.73-11.38-12.6-18.29-20.79-7.77,12.65-7.94,36.05-33.82,23.06l62.74-61.87,5,5.36c-10.27,44.21,22.72,14.54,33.7,22.46l4-4.59c-5.7-6-10.66-13.09-17.24-17.94-40.81-30.1-80.22-62.41-100.9-109.71-9.76-22.33-9.9-48.92-14-73.65-3.06-18.41-3.59-37.46-8.58-55.28-12.66-45.18-43.87-80.36-67.27-119.78-5.81-9.8-10.77-20.62-13.5-31.62-7.9-31.88-2.31-40.05,30.2-46.11-3-13.6-5.27-27.36-9-40.71-9.87-35.25-9.27-69.88.78-105.27,6.82-24.07,6.77-50.3,15.14-73.65,5.88-16.39,20.54-29.73,31.78-44,2.85-3.63,9.08-5,11.23-8.75,26.52-47.13,69-52.51,117-47.19,59.31,6.57,113.09,27.5,154.61,69.48,60.82,61.47,72.82,139.35,61.35,222.1-.54,3.87-8.42,6.72-16,12.33l7.86,16.89-5.68-2.88c-6,9.93-11.7,20.12-18.22,29.72-6.33,9.32-11.65,21.56-20.69,26.44-47.85,25.84-108.69,23.6-130.47-38.67-1.64-4.7-6.64-8.23-16-11.17,0,27.16-2.61,54.67.88,81.37,2.53,19.35,14,37.4,19.66,56.55,1.66,5.58-2.83,13-5.11,21.91l26.43,11.4c-26,20.44-33.36,65-21.93,95.12,5.75,15.14,2.06,34.23,1,51.43-.5,7.93-6.31,15.42-7.41,23.43-4.57,33.17,13.11,49.6,42.77,36.4,30.17-13.44,57.87-32.39,85.31-48.15,0,0-.34,6.43-3.62,10.49-24.84,30.78-49.69,61.59-75.72,91.35C558,857.67,535.35,869.51,534.5,900c-.38,13.88-16.1,27.33-24.86,41ZM685.38,367.61C696.84,308.29,671,264.94,645.3,221.74c-2.7-4.54-8.83-7.48-13.93-10.06-68.19-34.56-140.25-1.37-156.14,71.76-8.33,38.35,24.84,70.07,63.69,61.82,23.38-5,47.08-8.62,70.78-11.8,18.86-2.52,35.38,1.09,48.18,18.14C663.23,358.73,674.4,361.49,685.38,367.61ZM659.9,385.48c-28.82,19.73-65.12,28.81-58.93,71.21,22,0,46.26,7.18,64.18-16,16.34-21.13,11.61-43.1-3.25-60.73-7.31-8.68-23.69-9.73-36-14.23l-2.22,6.85Z" transform="translate(-254.27 -81.58)"/><path class="cls-1" d="M696.43,486.31V450.66C716.44,456.6,717.17,465.61,696.43,486.31Z" transform="translate(-254.27 -81.58)"/><path class="cls-2" d="M326.72,438.85q-8.76,15.18,3,19.58Z" transform="translate(-254.27 -81.58)"/><path d="M701.24,738c0-10.34-.6-30.87-1.66-36.21l30.88,13.51c-11.56-4-19-5.9-23.33-5.9-.3,0-.59,0-.86,0a.48.48,0,0,0-.44.35.49.49,0,0,0,.15.53C706.36,711,706.22,715.5,701.24,738Z" transform="translate(-254.27 -81.58)"/><path class="cls-3" d="M700.23,702.65l20.59,9c-6.23-1.85-10.68-2.73-13.68-2.73-.32,0-.62,0-.91,0a1,1,0,0,0-.71,1.62c.26.92,0,5.27-3.77,22.77,0-4.32-.19-9.26-.37-13.72-.4-9.84-.8-14.61-1.15-17m-1.46-1.73h0l.06,0-.06,0Zm.06,0c1.13,1,2.41,34.81,1.77,42.22,4.63-20.46,6.77-32.33,5.7-33.21.27,0,.54,0,.84,0C714,709.93,729,715,747,722L698.83,701Zm1.77,42.22c-.11.47-.21,1-.32,1.43.14,0,.24-.52.32-1.43Z" transform="translate(-254.27 -81.58)"/><path d="M351.25,743.93c-4.09-11.56-8.44-22.06-12.9-25.48a.47.47,0,0,0-.12-.07,2.63,2.63,0,0,0-.93-.13c-5.66,0-31.76,9.57-59.39,19.71-5.39,2-10.9,4-16.23,5.94,34.41-17.51,69.1-35,89.88-42.47C349.74,713.43,349.64,727.05,351.25,743.93Z" transform="translate(-254.27 -81.58)"/><path d="M350.94,702.19c-1.57,10.9-1.75,23.15-.53,37.93-3.74-10.15-7.68-18.94-11.75-22.07a2,2,0,0,0-.25-.14,3.18,3.18,0,0,0-1.11-.16c-5.75,0-31.89,9.59-59.56,19.74l-8.44,3.1c31.47-16,62.32-31.35,81.64-38.4m1.24-1.51c-22.14,7.81-60.11,27.19-97.91,46.43,32.41-11.64,75.77-28.36,83-28.36a2.15,2.15,0,0,1,.75.1c4.71,3.61,9.42,15.57,14.13,29.27-1.82-16.71-2.33-32.77,0-47.44Z" transform="translate(-254.27 -81.58)"/><path class="cls-4" d="M665.46,884.43" transform="translate(-254.27 -81.58)"/><path d="M650.18,911c-2-1-12.86-15-23.37-28.55-3.74-4.83-7.76-10-11.74-15.09l35,38.45a.87.87,0,0,0,.66.28c1.92,0,7.19-6.9,11.32-12.77A90.54,90.54,0,0,1,650.18,911Z" transform="translate(-254.27 -81.58)"/><path d="M623.58,877.49l26.08,28.69a1.37,1.37,0,0,0,1,.45c.88,0,2.21-.63,6-5.27l.5-.62a79.23,79.23,0,0,1-7,9.65c-2.63-2-12.93-15.33-22.91-28.21l-3.62-4.69m-18.37-21.68c18.36,22.64,42.62,55.77,45.06,55.77a.2.2,0,0,0,.13,0c1.5-1.51,9-10.61,15.06-24.1-7.45,11.18-13.16,18.19-14.77,18.19a.37.37,0,0,1-.29-.12l-45.19-49.7Z" transform="translate(-254.27 -81.58)"/><path class="cls-5" d="M622.84,875.35" transform="translate(-254.27 -81.58)"/><path class="cls-5" d="M623.29,876.9c-26.63-8.95-26.5-15.38-19.58-22.6Z" transform="translate(-254.27 -81.58)"/><path class="cls-4" d="M609.06,871.15c10.21,5,18.76,10.86,24,18.55l-9.79-10.51Z" transform="translate(-254.27 -81.58)"/><path d="M618.29,873.51l-.13,0" transform="translate(-254.27 -81.58)"/><path d="M618.33,873.57h0s0,0-.08-.09h0l0,0-.1-.17h0s0,0,0-.08h0s-.07-.16-.14-.3l0-.06h0a.9.9,0,0,0-.14-.37c-.06-.16-.14-.31-.2-.32s-.12-.19-.17-.18l-.12,0a.7.7,0,0,1,.06.16h0l-.13,0s.06.08.11.18l-.12,0s.13.17.23.35h0s0,0-.06,0h-.13s.08.07.14.14h-.06s.08.15.2.26h0s.1,0,.17.1l-.09,0-.13,0,.07.06-.1,0c-.12,0,.12.14.17.13h0l.08,0v0h-.06s0,0,0,0v-.05l-.13,0s0,.08,0,.08h.13v0l.08,0h-.05c-.07,0,0,.09.05.08l.13,0s0,0,0,0,.07,0,.08,0h.11l.11,0h0l.12,0h0Z" transform="translate(-254.27 -81.58)"/><path d="M621.12,876.21" transform="translate(-254.27 -81.58)"/><path d="M621.79,877.7c.06.15.13.27.21.27s-.11-.25-.19-.47a.19.19,0,0,0,.13.1s-.07-.1-.12-.23a.14.14,0,0,0,.1,0c-.08,0-.18-.26-.29-.51a.29.29,0,0,0,.14.11c.06.08.13.15.17.15s-.05-.14-.14-.26.06.05.09.05-.11-.1-.19-.2h0a.64.64,0,0,1-.1-.13l0,0,0,0c.07.08.22.23.29.23s0-.06-.08-.12h0s0-.07-.12-.14h0l-.24-.21,0,0h0l.08,0h0l.12,0c-.07,0,.05.12.1.12s0-.09-.06-.11,0,0-.06-.09a.35.35,0,0,0-.15-.09s0,0,0,0v0l-.12,0s0,0,0,0a.35.35,0,0,0-.16-.07h0a.21.21,0,0,0-.11-.05h0l0,0h0l0,0h0l0,0h0a.36.36,0,0,0,0,.07l0,0s0,.06.08.14h0l0,0c0,.1.09.25.15.39a.61.61,0,0,0,.07.14l0,0v0s0,0-.05,0a.58.58,0,0,0,.1.31c0,.14.12.59.24.59l-.06-.27A.32.32,0,0,0,621.79,877.7Zm-.16-.5h0a.56.56,0,0,1,0-.12h0l0,0v0a.1.1,0,0,0,0,.06.61.61,0,0,0,0,.12Zm.08-.27-.06-.08h0A.35.35,0,0,0,621.71,876.93Zm0,.06h0Zm-.13-.26h0s0,0,0,.07l0,0,0,0h0l0-.06.06.05Zm0-.17-.08-.09h0l.06.06Z" transform="translate(-254.27 -81.58)"/><path d="M621.7,876.22s0,.09,0,.09S621.71,876.22,621.7,876.22Z" transform="translate(-254.27 -81.58)"/><path d="M621.51,876.53" transform="translate(-254.27 -81.58)"/><path d="M622.18,878c.06.15.13.27.2.27a2.35,2.35,0,0,1-.18-.47c0,.06.08.1.13.1s-.07-.1-.12-.23a.12.12,0,0,0,.09,0c-.07,0-.17-.26-.29-.51a.36.36,0,0,0,.15.11c.06.08.13.15.17.15s-.05-.14-.15-.26.07,0,.1,0-.12-.1-.2-.2h0l-.1-.13,0,0a.2.2,0,0,0,0-.05c.07.08.22.23.29.23s0-.06-.08-.12h0s0-.07-.11-.14h0a2.25,2.25,0,0,0-.24-.21l0,0h0l.08,0h0a.34.34,0,0,0,.11,0c-.07,0,.06.12.11.12s0-.09-.07-.11,0,0-.06-.09-.06-.06-.14-.09,0,0,0,0,0,0,0,0l-.12,0s0,0,0,0a.38.38,0,0,0-.17-.07h0a.34.34,0,0,0-.11,0h0l0,0h0l0,0h0l0,0h0l0,.07,0,0s0,.06.09.14h0l0,0c0,.1.1.25.16.39a.37.37,0,0,0,.07.14v.06a.07.07,0,0,0-.05,0,.58.58,0,0,0,.1.31c0,.14.13.59.25.59s0-.13-.07-.27A.26.26,0,0,0,622.18,878Zm-.17-.5s0-.08,0-.12h0v0s0,0,0,.06l0,.12S622,877.52,622,877.52Zm.08-.27-.06-.08h0Zm0,.06Zm-.13-.26h0s0,0,0,.07l0,0,0,0h0l0-.06.07,0Zm0-.17-.07-.08h0l.07.06Z" transform="translate(-254.27 -81.58)"/><path d="M622.09,876.54s0,.09,0,.09S622.09,876.54,622.09,876.54Z" transform="translate(-254.27 -81.58)"/><path d="M620.42,875.24a1.69,1.69,0,0,0,.57.2" transform="translate(-254.27 -81.58)"/><path d="M621.53,877.73c-.06,0-.08-.29-.1-.57h0s0-.07-.05-.15,0-.07,0-.1h.05a.1.1,0,0,1-.05-.06v0c0-.09,0-.2,0-.3l.12,0s0-.24-.09-.39h0c.06,0,0-.16-.07-.26v0h0c.06,0,.07-.08,0-.1h-.06c.07,0,0-.14-.06-.18a.38.38,0,0,0-.08-.09l-.06,0-.06-.06h0l-.08-.07h0l0,0h0l-.48-.19h0v0h0a.56.56,0,0,1,0,.07v0h0s0,.05,0,.08,0,.15,0,.23v.24a.82.82,0,0,0,0,.38c0,.19,0,.47.07.5h0c0,.34,0,.75.12.79l.61.15h0Z" transform="translate(-254.27 -81.58)"/><path d="M621.67,875.57l.13.06" transform="translate(-254.27 -81.58)"/><path d="M622,877.52c0,.16.07.3.16.35l.13.06c-.09,0-.1-.31-.11-.58l0,0s0-.06-.06-.11a.86.86,0,0,0,0-.16l0,0a.17.17,0,0,1-.06-.06.88.88,0,0,0,0-.17,1.1,1.1,0,0,1,0-.18l.12.06a1.14,1.14,0,0,0-.1-.4l0,0s0-.16-.08-.26l0,0h0s.07-.07,0-.09l0,0s-.05-.17-.09-.19a.3.3,0,0,0-.07-.08l0,0a.55.55,0,0,0-.06-.08.27.27,0,0,0-.07-.08h0l-.11-.06h0v0h0s0,0,0,.07v0h0v0s0,0,0,.06v0h0a0,0,0,0,0,0,0s0,.1,0,.15a.19.19,0,0,0,0,.08v0s0,0,0,.06v.11a.5.5,0,0,0,0,.38c0,.17,0,.42.06.47l.06,0c0,.32,0,.69.11.76l.13.07c-.05,0-.05-.17-.05-.36Z" transform="translate(-254.27 -81.58)"/><path d="M621,875.56l.25.1" transform="translate(-254.27 -81.58)"/><path d="M621.9,877.89c-.08,0-.1-.29-.13-.56l.07,0c-.05,0-.07-.12-.09-.25h0l.06,0s-.06-.06-.08-.12,0-.18,0-.27l.14,0s0-.19-.1-.35l0,0,.06,0s0-.15-.1-.25,0,0,0,0l0,0c.06,0,0-.09,0-.11h0s0-.13-.11-.17a.38.38,0,0,0-.08-.09l-.08,0h0l-.08-.07h0l0,0h0l0,0h0l-.21-.1h0a.11.11,0,0,1,0,0v.05h0a1.11,1.11,0,0,0,.06.27c0,.09,0,.18,0,.28a.48.48,0,0,0,0,.33c0,.16,0,.43.09.47h0c0,.3,0,.68.14.73l.26.1h0Z" transform="translate(-254.27 -81.58)"/><path d="M604.21,865.86c9.4,4.55,17.23,11.79,24.32,19.48s13.57,15.92,21.12,23.14" transform="translate(-254.27 -81.58)"/><path d="M603.45,867.15c14.58,7.14,24.78,20.14,35.32,32,3.15,3.57,6.39,7.06,9.82,10.36,1.4,1.34,3.52-.78,2.13-2.12C638.78,896,629.41,882,616.29,871.75A65,65,0,0,0,605,864.56c-1.72-.84-3.25,1.74-1.51,2.59Z" transform="translate(-254.27 -81.58)"/><path d="M602.77,858.07a8.39,8.39,0,0,0-1.15,9.19,10.26,10.26,0,0,0,7.76,5.4c2.2.31,4.48,0,6.61.62" transform="translate(-254.27 -81.58)"/><path d="M601.71,857a10.07,10.07,0,0,0,.07,13.17,12,12,0,0,0,5.89,3.66c2.6.71,5.34.17,7.92.88a1.5,1.5,0,0,0,.8-2.89c-2.32-.64-4.71-.25-7-.68a9.29,9.29,0,0,1-4.83-2.44c-2.54-2.49-3.16-6.81-.68-9.58,1.28-1.43-.83-3.56-2.12-2.12Z" transform="translate(-254.27 -81.58)"/><path d="M604.84,867.71c3.59,4.32,9.42,5.85,14.6,8" transform="translate(-254.27 -81.58)"/><path d="M603.78,868.77c3.88,4.59,9.92,6.18,15.26,8.38a1.51,1.51,0,0,0,1.85-1,1.54,1.54,0,0,0-1-1.85c-4.87-2-10.41-3.43-13.94-7.61a1.5,1.5,0,0,0-2.12,2.12Z" transform="translate(-254.27 -81.58)"/><path d="M605.21,870a9.93,9.93,0,0,0,6.14,3.09" transform="translate(-254.27 -81.58)"/><path class="cls-3" d="M604.15,871a11.56,11.56,0,0,0,7.2,3.53,1.5,1.5,0,0,0,1.06-.44,1.52,1.52,0,0,0,.44-1.06,1.54,1.54,0,0,0-.44-1.06,1.71,1.71,0,0,0-1.06-.44h.1a1.25,1.25,0,0,1-.19,0l-.44-.08a8,8,0,0,1-.81-.2c-.27-.08-.54-.18-.8-.28l-.05,0c.21.09,0,0,0,0l-.4-.2a9.4,9.4,0,0,1-1.39-.85c-.09-.07-.21-.23,0,0l-.16-.12-.3-.26c-.22-.2-.43-.41-.63-.62a1.5,1.5,0,0,0-2.12,0,1.53,1.53,0,0,0,0,2.12Z" transform="translate(-254.27 -81.58)"/><path d="M649,909.63a40.6,40.6,0,0,1-12.64-11.94" transform="translate(-254.27 -81.58)"/><path d="M649.72,908.34a39.2,39.2,0,0,1-12.1-11.4,1.54,1.54,0,0,0-2-.54,1.5,1.5,0,0,0-.54,2.05,42.57,42.57,0,0,0,13.18,12.48c1.65,1,3.16-1.6,1.51-2.59Z" transform="translate(-254.27 -81.58)"/><path d="M637,898.83a58.67,58.67,0,0,0-8.37-10.63l-4.24-4.61a16.94,16.94,0,0,0-2.25-2.15,14.2,14.2,0,0,0-3-1.59,64.6,64.6,0,0,0-10.33-3.37c-3-.69-6.06-1.2-8.66-2.79s-4.61-4.63-3.93-7.6a8.73,8.73,0,0,1,1.55-3.07,23.39,23.39,0,0,1,5-5.09" transform="translate(-254.27 -81.58)"/><path d="M638.29,898.07a56.12,56.12,0,0,0-7.56-9.81q-2.22-2.43-4.46-4.84a17.81,17.81,0,0,0-4.83-4.16A54,54,0,0,0,609.19,875c-3.71-.87-8.36-1.43-10.65-4.9a4.91,4.91,0,0,1,.14-5.83,21.2,21.2,0,0,1,4.83-5.08c1.52-1.16,0-3.77-1.51-2.6-3.13,2.39-7.09,6-7.4,10.2s3,7.51,6.52,9a35.63,35.63,0,0,0,6.43,1.87,67.49,67.49,0,0,1,7,2,27.58,27.58,0,0,1,6.5,2.8c1.89,1.28,3.37,3.33,4.91,5,3.51,3.81,7.17,7.56,9.76,12.09a1.5,1.5,0,0,0,2.59-1.51Z" transform="translate(-254.27 -81.58)"/><path d="M599.22,866.35a10,10,0,0,1,1.36,2.61,10.33,10.33,0,0,0,4.47,4.77" transform="translate(-254.27 -81.58)"/><path class="cls-3" d="M598.16,867.42c.25.29-.16-.26.05.06a2.13,2.13,0,0,1,.16.25c.1.16.19.34.28.52s.08.17.12.27.19.41,0,.08c.12.26.22.53.33.79a10.69,10.69,0,0,0,1.19,2.11,12.08,12.08,0,0,0,4,3.53,1.5,1.5,0,1,0,1.52-2.59,10.68,10.68,0,0,1-1-.6l-.28-.2c-.23-.17.12.11,0,0l-.44-.38c-.28-.25-.55-.53-.81-.81a3.17,3.17,0,0,1-.4-.49c.06.1.13.17,0,0a2.83,2.83,0,0,1-.2-.28,8.78,8.78,0,0,1-.59-1c-.09-.17-.18-.34-.26-.51s-.07-.19-.11-.28.1.24,0,0a9.39,9.39,0,0,0-1.47-2.62,1.51,1.51,0,0,0-2.12,0,1.54,1.54,0,0,0,0,2.13Z" transform="translate(-254.27 -81.58)"/><path d="M638,897.85c2,4.65,6.32,7.81,10.45,10.73" transform="translate(-254.27 -81.58)"/><path d="M636.68,898.61c2.17,4.95,6.72,8.24,11,11.27a1.51,1.51,0,0,0,2.05-.54,1.53,1.53,0,0,0-.53-2.05c-3.91-2.77-8-5.7-9.92-10.2a1.51,1.51,0,0,0-2-.54,1.55,1.55,0,0,0-.54,2.06Z" transform="translate(-254.27 -81.58)"/><path class="cls-4" d="M350.37,702.09c5,27,9.78,52.56,14.46,78.17,4.64,25.33,9.18,50.67,13.77,76L370,857.79c-1.25-8.33-1.55-16.95-3.92-25-8.61-29-17.14-58.11-27.23-86.64C332.42,728.05,336.38,714.3,350.37,702.09Z" transform="translate(-254.27 -81.58)"/></svg>