<svg id="Layer_1" data-name="Layer 1" xmlns="http://www.w3.org/2000/svg" viewBox="0 0 122.52 122.53"><path d="M64.15,2.64A61.27,61.27,0,1,1,2.9,63,61.31,61.31,0,0,1,64.15,2.64Zm39.11,55.28a6.14,6.14,0,0,0,5.53-4.32,5.51,5.51,0,0,0-2.55-6.42,93.09,93.09,0,0,0-8.77-4.38c-12.09-5-24.81-7.14-37.83-7.65A118.94,118.94,0,0,0,44,35.58a89.91,89.91,0,0,0-18,3.33,5.7,5.7,0,1,0,3.25,10.93A89.35,89.35,0,0,1,52,46.53a112.36,112.36,0,0,1,23.3,1.71c8.85,1.59,17.36,4.16,25.19,8.73A14.93,14.93,0,0,0,103.26,57.92Zm-50.39-1.8c-1.59.08-4.22.16-6.83.38a74.87,74.87,0,0,0-16.66,3.17,5.42,5.42,0,0,0-2.23,1.46,4.59,4.59,0,0,0-.42,5.61,4.74,4.74,0,0,0,5.52,2,67.89,67.89,0,0,1,12.69-2.52,84.66,84.66,0,0,1,22.54.64,71.35,71.35,0,0,1,25.69,9.05,4.72,4.72,0,0,0,6.57-1.62,4.65,4.65,0,0,0-1.64-6.48c-2.26-1.33-4.57-2.62-6.94-3.72C79.35,58.59,66.86,56.26,52.87,56.12Zm1.23,20a103.14,103.14,0,0,0-22.34,2.75,3.81,3.81,0,1,0,1.65,7.42A103.19,103.19,0,0,1,48.74,84a72.56,72.56,0,0,1,20.32,1.22,56.81,56.81,0,0,1,17.86,7,3.79,3.79,0,1,0,3.9-6.5c-1.71-1-3.44-2-5.23-2.85C75.81,78.09,65.41,76.13,54.1,76.13Z" transform="translate(-2.89 -2.64)"/></svg>